<svg xmlns="http://www.w3.org/2000/svg" width="30" height="36" viewBox="0 0 30 36" fill="none"><path d="M28.2217 14.5261C28.0784 14.3387 27.6484 13.8233 26.9318 13.3547C26.7408 13.2141 26.5019 13.0735 26.263 12.9329C25.5942 12.5581 24.9254 12.3238 24.2566 12.1832C23.7311 12.0426 23.2056 11.9958 22.6801 11.9489C20.2915 11.8083 18.1417 12.5112 17.4729 12.7924C17.855 11.7146 18.5239 10.2151 19.766 8.71567C21.5335 6.51333 23.5878 5.38872 24.7821 4.77956C24.7343 4.4047 24.6388 3.79553 24.3044 3.09266C24.0177 2.43664 23.5878 2.01491 23.3489 1.73376C21.1514 2.71779 19.1927 4.1704 17.6162 5.99788C18.1895 4.45155 18.906 3.28009 19.5271 2.48349C19.2882 2.15548 18.9538 1.73376 18.3805 1.31203C17.7595 0.843447 17.1862 0.60916 16.804 0.468585C15.7531 1.87434 14.8931 3.42066 14.3199 5.06071C14.2243 5.295 14.1766 5.5293 14.081 5.76359C14.1288 5.06071 14.2721 4.35784 14.4632 3.70182C14.7021 2.76465 15.0365 1.96806 15.3231 1.40575C15.0365 1.1246 14.6065 0.79659 13.9855 0.515439C13.3166 0.18743 12.6478 0.0468585 12.2179 0C11.7402 0.984028 11.4057 1.96805 11.1191 2.99894C10.6414 4.82642 10.5936 6.32589 10.6414 6.98191C10.6414 9.84028 11.5491 12.1363 12.2179 13.589C11.979 13.4484 11.3102 13.0267 10.3547 12.7455C9.2082 12.3706 7.58393 12.0895 5.86411 12.5581C3.37994 13.2141 2.0423 14.9947 1.61235 15.557C1.32571 15.9319 -0.585191 18.6028 0.179172 22.0703C0.274717 22.4921 0.895761 24.9756 3.18885 26.803C6.43739 29.3803 9.35152 27.7871 12.1223 29.7551C13.2689 30.5986 14.6065 32.1918 15.0842 35.6593C15.132 36.081 15.7531 36.1279 15.8486 35.7062C16.3263 34.0192 16.613 32.2386 16.7085 30.4112C16.9951 30.458 17.9028 30.6454 19.1449 30.6454C19.4315 30.6454 19.7182 30.6454 20.0526 30.6454C22.059 30.5517 24.591 29.9426 26.693 28.0214C26.9318 27.7871 27.1707 27.5528 27.3618 27.3185C27.4096 27.2248 27.5051 27.1779 27.5529 27.0842C28.1739 26.3345 28.6517 25.491 29.0338 24.6476C29.0816 24.5538 29.1294 24.4601 29.1294 24.3664C30.6103 20.852 30.1326 16.7753 28.2217 14.5261Z" fill="#A60A3D"></path></svg>